trial_1_IK.mot
nRows=12
nColumns=42

name trial_1_IK.mot
datacolumns 42
datarows 12
range 2.9900000000 3.1000000000
endheader
time	pelvis_tilt	pelvis_list	pelvis_rotation	pelvis_tx	pelvis_ty	pelvis_tz	hip_flexion_r	hip_adduction_r	hip_rotation_r	knee_angle_r	knee_vv_r	knee_rot_r	ankle_angle_r	subtalar_angle_r	mtp_angle_r	hip_flexion_l	hip_adduction_l	hip_rotation_l	knee_angle_l	knee_vv_l	knee_rot_l	ankle_angle_l	subtalar_angle_l	mtp_angle_l	lumbar_extension	lumbar_bending	lumbar_rotation	arm_flex_r	arm_add_r	arm_rot_r	elbow_flex_r	pro_sup_r	wrist_flex_r	wrist_dev_r	arm_flex_l	arm_add_l	arm_rot_l	elbow_flex_l	pro_sup_l	wrist_flex_l	wrist_dev_l
        2.9900000000	        8.1664715300	        1.5806633700	        1.0172241300	        0.0620761600	        0.8947620800	       -0.0218433100	       13.7092374000	       -1.0012582200	        0.0371068600	       -7.5805242800	        0.0000000000	        0.0000000000	       -1.0886682000	        0.0000000000	        0.0000000000	      -21.1148217000	        5.0405145300	        2.0083886300	       -5.3210978000	        0.0000000000	        0.0000000000	       13.3201821100	        0.0000000000	        0.0000000000	      -22.1370649300	        0.1738021600	       -4.3466944800	       -5.7851671000	      -10.6722662100	       43.1928536300	        2.4868085100	       86.5166270600	        0.0000000000	        0.0000000000	       22.5554355200	      -19.3901941800	       22.7910152000	       32.3796952600	       85.9436692700	        0.0000000000	        0.0000000000	
        3.0000000000	        8.3974870500	        1.3336847500	        1.1071547600	        0.0633354800	        0.8936699100	       -0.0204980700	       13.7626247300	       -0.5846452500	       -0.4867502100	       -9.1063731100	        0.0000000000	        0.0000000000	       -1.9386460700	        0.0000000000	        0.0000000000	      -21.7363650600	        4.6122260600	        1.8866685600	       -5.9150294700	        0.0000000000	        0.0000000000	       13.4963147400	        0.0000000000	        0.0000000000	      -22.3388865300	        0.4195675300	       -4.1967265600	       -5.3469385300	      -10.7179306700	       43.6259960800	        2.5690411900	       86.5166270600	        0.0000000000	        0.0000000000	       21.9940399400	      -19.0634181300	       22.8439981000	       31.8194424900	       85.9436692700	        0.0000000000	        0.0000000000	
        3.0100000000	        8.6691380300	        1.0145776600	        1.1754863500	        0.0645581600	        0.8929214700	       -0.0190740300	       13.7819588200	       -0.1189874800	       -0.9198973100	      -10.5002550600	        0.0000000000	        0.0000000000	       -2.7912109500	        0.0000000000	        0.0000000000	      -22.3068130400	        4.1186836100	        1.6937348800	       -6.6551561600	        0.0000000000	        0.0000000000	       13.5719263200	        0.0000000000	        0.0000000000	      -22.6004756000	        0.7354362200	       -4.0071918700	       -4.8294469700	      -10.7908457300	       44.0350925000	        2.6964105500	       86.5166270600	        0.0000000000	        0.0000000000	       21.4218787700	      -18.7002315200	       22.9237729800	       31.1258289400	       85.9436692700	        0.0000000000	        0.0000000000	
        3.0200000000	        8.9709845700	        0.6329038700	        1.2206895400	        0.0657190500	        0.8925843500	       -0.0175811600	       13.7279472100	        0.3893773100	       -1.2335990300	      -11.7734060400	        0.0000000000	        0.0000000000	       -3.5296970500	        0.0000000000	        0.0000000000	      -22.8277902800	        3.5806245200	        1.4425495600	       -7.5299035300	        0.0000000000	        0.0000000000	       13.5250377400	        0.0000000000	        0.0000000000	      -22.9214376900	        1.1068435700	       -3.7797198000	       -4.2367372200	      -10.8871455300	       44.4277117800	        2.8639736400	       86.5166270600	        0.0000000000	        0.0000000000	       20.8447596800	      -18.2986804500	       23.0613668600	       30.2854355000	       85.9436692700	        0.0000000000	        0.0000000000	
        3.0300000000	        9.2939584700	        0.2186657200	        1.2394864900	        0.0668886100	        0.8926444000	       -0.0160424400	       13.5650270700	        0.9300231900	       -1.4190019800	      -12.9750886800	        0.0000000000	        0.0000000000	       -4.0372890400	        0.0000000000	        0.0000000000	      -23.3071555600	        3.0335501100	        1.1457964900	       -8.5229222500	        0.0000000000	        0.0000000000	       13.3330522500	        0.0000000000	        0.0000000000	      -23.2833677000	        1.4992202200	       -3.5199767500	       -3.5845951300	      -11.0004212800	       44.8115799700	        3.0629851300	       86.5166270600	        0.0000000000	        0.0000000000	       20.2586104000	      -17.8620395600	       23.2968986100	       29.2865250200	       85.9436692700	        0.0000000000	        0.0000000000	
        3.0400000000	        9.6393351400	       -0.1859810200	        1.2256516000	        0.0682125800	        0.8930694400	       -0.0144690700	       13.2879126700	        1.4831145100	       -1.4836388900	      -14.1467316400	        0.0000000000	        0.0000000000	       -4.2264447500	        0.0000000000	        0.0000000000	      -23.7533827300	        2.5158254400	        0.8109542300	       -9.6246159700	        0.0000000000	        0.0000000000	       12.9707377400	        0.0000000000	        0.0000000000	      -23.6557112900	        1.8653705200	       -3.2343233300	       -2.8936588900	      -11.1219141000	       45.1900117000	        3.2834993700	       86.5166270600	        0.0000000000	        0.0000000000	       19.6533084900	      -17.3989984800	       23.6761941800	       28.1194162100	       85.9436692700	        0.0000000000	        0.0000000000	
        3.0500000000	       10.0064287300	       -0.5418669600	        1.1700798700	        0.0697555000	        0.8938126800	       -0.0128353400	       12.9154402400	        2.0187503300	       -1.4442166800	      -15.2977743000	        0.0000000000	        0.0000000000	       -4.0602752000	        0.0000000000	        0.0000000000	      -24.1607158400	        2.0582030100	        0.4367935000	      -10.8397552600	        0.0000000000	        0.0000000000	       12.4069197200	        0.0000000000	        0.0000000000	      -24.0064262200	        2.1582187700	       -2.9281839800	       -2.1798014200	      -11.2414287800	       45.5579027500	        3.5178058700	       86.5166270600	        0.0000000000	        0.0000000000	       19.0197147200	      -16.9213562400	       24.2450643200	       26.7787645000	       85.9436692700	        0.0000000000	        0.0000000000	
        3.0600000000	       10.3787473200	       -0.8247708100	        1.0640650600	        0.0714460000	        0.8948204300	       -0.0110927300	       12.4681354400	        2.5046493000	       -1.3193535300	      -16.4053803600	        0.0000000000	        0.0000000000	       -3.5595957200	        0.0000000000	        0.0000000000	      -24.4951581500	        1.6782645000	        0.0133343200	      -12.1904672600	        0.0000000000	        0.0000000000	       11.6015300300	        0.0000000000	        0.0000000000	      -24.3099941300	        2.3436030500	       -2.6073284200	       -1.4485324400	      -11.3488527300	       45.8996529700	        3.7630790400	       86.5166270600	        0.0000000000	        0.0000000000	       18.3559756400	      -16.4403087800	       25.0419715700	       25.2674581400	       85.9436692700	        0.0000000000	        0.0000000000	
        3.0700000000	       10.7270213800	       -1.0280729300	        0.9058577900	        0.0731701400	        0.8960577300	       -0.0092023900	       11.9575263800	        2.9178772100	       -1.1246638300	      -17.4248421500	        0.0000000000	        0.0000000000	       -2.7947088800	        0.0000000000	        0.0000000000	      -24.6949456000	        1.3776651300	       -0.4735247300	      -13.7164187400	        0.0000000000	        0.0000000000	       10.5052368400	        0.0000000000	        0.0000000000	      -24.5487926500	        2.4082425700	       -2.2804529200	       -0.6970911700	      -11.4359763700	       46.1899103300	        4.0222014400	       86.5166270600	        0.0000000000	        0.0000000000	       17.6689124600	      -15.9636146200	       26.0902628300	       23.5999459500	       85.9436692700	        0.0000000000	        0.0000000000	
        3.0800000000	       11.0229059700	       -1.1582254100	        0.7069581800	        0.0748496400	        0.8975054000	       -0.0071610300	       11.3910337900	        3.2530019900	       -0.8715121900	      -18.3019726000	        0.0000000000	        0.0000000000	       -1.8661632400	        0.0000000000	        0.0000000000	      -24.6866946200	        1.1396688100	       -1.0329581500	      -15.4710093000	        0.0000000000	        0.0000000000	        9.0638743200	        0.0000000000	        0.0000000000	      -24.7099579100	        2.3602025300	       -1.9601719800	        0.0784641300	      -11.4983379700	       46.3971889200	        4.3029839000	       86.5166270600	        0.0000000000	        0.0000000000	       16.9691549100	      -15.4951201600	       27.3918386100	       21.8028480700	       85.9436692700	        0.0000000000	        0.0000000000	
        3.0900000000	       11.2475745100	       -1.2292120000	        0.4930293600	        0.0764468400	        0.8991307300	       -0.0049994400	       10.7781159800	        3.5223558800	       -0.5696721100	      -18.9854387700	        0.0000000000	        0.0000000000	       -0.8813640400	        0.0000000000	        0.0000000000	      -24.4051093900	        0.9286554200	       -1.6581730200	      -17.5100272600	        0.0000000000	        0.0000000000	        7.2291224600	        0.0000000000	        0.0000000000	      -24.7825090300	        2.2233466700	       -1.6616293900	        0.8774670200	      -11.5366721600	       46.4896164700	        4.6168469300	       86.5166270600	        0.0000000000	        0.0000000000	       16.2640983400	      -15.0358257500	       28.9242287600	       19.9128232900	       85.9436692700	        0.0000000000	        0.0000000000	
        3.1000000000	       11.3901974300	       -1.2594664500	        0.2980188600	        0.0779377600	        0.9008768900	       -0.0027579100	       10.1294487600	        3.7495430500	       -0.2326066700	      -19.4370991100	        0.0000000000	        0.0000000000	        0.0662624200	        0.0000000000	        0.0000000000	      -23.8050803600	        0.6956343500	       -2.3178950400	      -19.8728462200	        0.0000000000	        0.0000000000	        4.9752185100	        0.0000000000	        0.0000000000	      -24.7578376100	        2.0305023600	       -1.3995355000	        1.6940659100	      -11.5574942000	       46.4415890900	        4.9776848900	       86.5166270600	        0.0000000000	        0.0000000000	       15.5536570900	      -14.5850743200	       30.6422447700	       17.9728919100	       85.9436692700	        0.0000000000	        0.0000000000	
